<svg width="800" height="974.4" xmlns="http://www.w3.org/2000/svg"><g transform="translate(0, 0)" id="single_state_map"><path d="M98.49563290390506,967.8737151687201L98.24189111244414,966.8340634816414L96.4170897526601,966.3143333030293L95.1344925611811,965.9124107420885L94.46091320499181,965.0598388430853L94.03994956722454,964.4205608968214L94.03994956722454,963.4612439176872L94.2925652856502,962.3954330096867L94.5451810040795,961.4362428459181L95.4711883998607,960.370308843665L95.63972399803606,958.9846878586277L95.38710827960676,958.0250734163474L94.62944880316718,957.2788287478024L93.78752152763991,956.3193585821427L93.11394217144698,954.5067506591895L92.77724633277103,952.160730402049L93.11394217144698,950.560958574386L93.53490580921061,949.2810834609218L94.2925652856502,948.0011148113099L95.63972399803606,946.9343631668862L97.49192646843221,945.3341138352034L97.8286223071118,943.5203686551877L96.73407931315523,940.74611183466L95.4711883998607,937.5445728818258L96.97656037422712,933.7513101730747L101.32977106435646,928.0868926462144L101.3963970525001,925.5828055246166L98.90833867271795,918.3949536265236L98.16531814578411,914.1543936292101L99.00724542131502,911.0547338268807L99.93344049593361,909.0236565554278L101.95399088566774,908.3820891755904L105.57412802737599,906.6715247299189L106.58440322224124,903.6773352658065L106.24770738356528,901.9663093239096L104.73220075184872,900.2551154637358L104.05862139565579,898.6505845283627L103.80619335606752,896.0831231708526L105.48986022828831,893.7292448381959L108.58487197611612,891.0444001930309L113.99002256355743,889.9386152975076L118.45527752107228,884.7389343241875L118.28692960173066,881.9550792253467L117.10811880868641,879.9206072102033L115.54963372263956,879.062395919028L111.35726379825428,876.1527565334709L108.2945328108799,872.9391010174195L106.71521537361332,870.0430070083621L107.00536686000851,867.2799712000933L107.59467841711376,865.6723974335955L108.35233789355334,864.6005989658979L109.58032054263458,863.4902645401435L111.22119663937337,863.5550180764849L112.98293790896423,861.1704472931506L113.90894530474543,858.8118399879659L112.9005468982723,855.9951442567381L112.74139524209022,854.7967626882046L115.25591633828662,851.0906511654675L117.10811880868641,850.3398167348405L118.45527752107228,850.9835277303246L119.3812849168462,852.1632837467187L119.97059647395145,854.0939031743601L120.98087166881669,854.73723589361L122.74899401896619,854.2010074143109L124.804640351751,852.0387125672105L125.69555180448151,850.1253208057551L126.20078324133647,848.6235359077864L127.12679063711403,848.1942598080605L128.38968155040857,848.7306739132391L129.98926830237906,850.5543100126297L131.33642701476128,851.0906511654675L132.8517459676441,850.7688006392309L134.11463688093863,850.0179522825138L134.95656415646954,848.7306739132391L135.29157088558713,846.7915649576962L135.15062407686491,842.5787327574199L137.02778783296162,837.3007233777644L140.15188980096354,833.4161403782009L145.0463662651964,831.573225710481L151.56670451897662,822.4373826691653L152.3575831500675,816.0700430280831L154.29837003286957,814.3132222175109L154.40440857738213,813.4481644100097L153.3543454684659,811.8981409759563L151.95782722120566,810.4522378365509L151.88932444466627,808.3537495827895L152.64247962895024,806.6050145244699L154.28542019292217,805.7304607701244L157.42359807391404,805.4516395100782L161.33839099416946,803.4956885870952L164.11866532758359,801.0018777061441L166.87247694458347,799.9243920782674L168.11434782781726,798.9079974915048L168.66199468247578,797.7706582617902L168.73030978017778,796.4583798434269L168.3590810349706,795.54109293905L167.4296954200763,790.7701272691475L169.31173882600706,787.134997516896L169.15690378313957,784.2725257918873L171.74255515963523,779.3879935799469L173.3171806259088,779.0376733989706L173.8648274805637,778.7747485046339L174.34415923752022,778.0740760991821L174.29667649104158,777.3606480313874L173.69516580934942,775.3229771248862L174.62849267987986,772.0965523625173L175.05170846372494,767.1436926573524L180.01431234681877,760.4355053455247L189.04917169679902,757.9808951371488L191.7342928584112,756.4366983485861L193.91549633504837,753.2718999744802L194.46014032827225,748.6698568030042L198.25369271799354,742.3197325190531L197.79312884501996,738.6989068295061L198.2456225278802,733.6928437694951L192.46417586655298,724.1687008277768L193.52662577889714,722.1319432334703L192.7361225054883,716.7783691563627L188.11509411090447,714.1839866322307L187.5766435193982,713.2719431843698L188.70534406220395,710.3142167792475L189.32111833572708,705.6176866869937L192.40730917808105,702.5802538562102L194.06244886664717,698.8374051957508L195.30844868435815,691.3062923591269L192.05991564553915,687.0803521559565L182.89687164794668,683.0095920391459L182.74710393375426,679.9135622099438L184.51522628390376,675.6128180149572L183.51471038870295,672.0737827354251L183.97245907907927,666.4616191238647L179.50851787344436,661.0581922235533L177.22934604240436,660.3797723795287L176.29170255855934,659.624678221614L175.7055815417334,658.5675385955947L175.58846994567284,657.057156351746L175.23675979980908,656.000099384537L174.06470544499825,655.6980365216996L173.12687428230856,655.0936528862703L172.7753518152822,654.4894896874976L172.65805254038423,653.583204741165L172.65805254038423,652.6768716090073L172.77610253064267,651.6113182627641L170.7304031763706,649.2259789378577L170.19645687701995,645.272741280899L171.23901283234227,639.9899211369657L174.92483756799265,638.038007041413L180.9647179917738,632.4606370438978L183.13897735134378,629.2396323197045L183.60273176459305,627.4759228784624L182.73847070712145,623.9489243485004L181.91793881933336,621.3762590757797L180.05034668406734,620.437673624655L177.78750291209872,617.1244621284632L176.941634380928,612.0067408694613L179.28855827315056,608.5740217769389L179.2132990583741,607.8243861773626L178.75329822191998,604.5681437475923L180.87650893704995,599.4910400810049L182.89461950186887,597.9108524729327L187.38596181811954,597.8756654162871L189.3353819275544,594.8616837835807L191.65640613987853,596.0798152530979L191.711020682269,574.5225355737612L191.711020682269,574.2610609604753L191.68587171773106,571.4074202190677L191.66353793579037,567.3356166130043L191.66053507435572,566.5690813248457L191.6532155995992,564.6867531104408L191.65997203783627,561.1418055749409L191.64777291324208,560.2132556961133L191.5965365899683,552.5696296535989L191.60141623980235,547.9663631276289L191.58846639985495,543.5458907635102L191.52146505402925,523.5436338115269L191.50663842568247,523.5494835418376L191.45802960616493,518.9748618228459L191.38990218730032,490.4560187796078L191.3914036180213,486.91447759487346L191.3917789756997,485.03862382679745L191.375638595473,483.3223480333172L191.3596858940873,465.6779015726497L191.44432905085705,444.1533437898361L191.44170154709718,443.19014945046547L191.46178318296006,442.5335389803058L191.4882458993743,440.1402806774495L191.52784613458425,437.6136513485162L191.53610400353864,437.0597212660268L191.53216274790248,434.25303993205125L191.53216274790248,434.2297612516322L191.6723588412642,404.45110983212L191.63519843097674,401.6848553292457L191.69525565972435,400.7631595983985L191.75268538471573,395.35987842988106L191.80992743086608,390.0091426587114L191.96682694097763,375.6980077452863L191.9551908529029,375.541860450081L192.56420868818896,323.4521956237986L192.61300518654753,320.1244630298079L192.62182609202137,319.75461887082565L192.645473625842,316.1973770662844L192.6499779179976,305.4496973064015L192.66123864839028,305.37610804093856L192.69183029928172,255.53158054480082L192.756767177867,226.42521284303984L192.69483316072,220.13492111680898L192.72317266553364,219.90779421588377L192.63402521661192,216.53378323855395L192.71341336586556,216.19289287534593L192.70027584707714,212.1374182825275L192.65879882347144,187.67406717946687L192.6511039910365,187.61512139424303L192.61844787290465,184.06952796791666L192.58260121449348,160.0086686444629L192.5846656817339,155.4804810883379L192.58541639709438,153.0969041826338L192.58597943361383,151.9164513123269L192.58109978377615,150.54795643265425L192.59217283532416,150.3879173051373L192.6096269674308,149.4468455522474L192.5719035206239,115.92878017401563L192.6402186183259,101.52459012910731L192.8380321155164,95.26284745979319L192.78679579224263,77.0513583853135L192.77778720792776,72.92010086736263L192.91498043985484,57.9800977972136L192.89602487703087,50.58268676919579L192.9710964129663,49.554304805215L192.9709087341289,34.69819245274448L192.9521408501423,32.212478156661746L192.9709087341289,31.58471215444297L192.9329976084773,17.340434598787397L192.91422972449436,14.575540803258264L193.0831406803518,13.142637061302594L193.74001661979855,12.740395631566571L194.7349021498012,14.173335033212425L195.52315327713586,16.108858497935216L196.5929226642329,17.36556782806292L203.08679820159523,22.064795122336363L207.2059733784372,19.30774562096667L212.49551380053526,17.407540233840336L216.49494987756407,20.862475788415395L210.15084205439416,28.049432692750997L210.76323810880058,28.797136996272457L211.96438268378552,29.600811527596306L217.3884888340508,31.00714592688746L222.8499430734446,32.940405127843405L230.5637310697748,34.57240941307464L237.45173217080264,34.77326010856268L239.17837749734827,35.40090247200169L242.35033756950907,35.2502705238694L250.02189782688038,34.2410003175537L256.2169886512129,32.91102754318672L261.2891969767752,30.999361197829785L261.2593560412388,28.96038661581406L267.81854381486846,27.725425136752165L268.853217258913,28.881022391102306L279.04211379507797,24.825896602018474L286.2011231408396,21.60598955525893L303.666140618825,12.815062453655628L308.489486802755,8.465207574183296L314.8144513842617,5.698543207416151L324.31118835909,0.0885637966075592L324.5364029668999,0.0885637966075592L328.1400243706976,0.0885637966075592L328.67472138540506,0.0885637966075592L328.838189654909,0.0885637966075592L328.8562068235333,0.08579618531985034L338.7121610978211,0.15725072483473923L339.00775527056976,0.1534767253742757L358.7769058652939,0.2412848842686799L358.99123510039317,0.2317241336877487L381.64895071911997,0.28808216069592163L384.9417759641419,0.26141276172347716L429.2859692054117,0.0968666276348813L436.68539514500844,0.14492232333213906L438.2769117068674,0.14492232333213906L455.12033686729956,0L455.56776322147925,0.008051274309764267L455.6428347574165,0.004025637659651693L471.4140507058328,0.02012817825379898L480.7463810169611,0.16177952301768528L483.8096750408549,0.186939489805809L483.82450166920535,0.186939489805809L499.97914548741574,0.29437210686410253L502.57436848474936,0.3147515156178997L503.1291471353197,0.30871317496712436L518.2707005760658,0.3877146200156858L521.3343699576399,0.36356135299502057L525.945639052552,0.3779023596416664L526.035161859154,0.3776507631482673L530.8130897638421,0.3791603420777392L544.6630374287997,0.374631604860042L545.2363962845175,0.36909647987886274L548.0457608381057,0.3592842081980052L549.495955233564,0.3771475701396412L549.9424431935477,0.38821781268961786L552.6254998879249,0.35198789974492684L552.7688865215641,0.3806699208671489L569.528043882905,0.27147669103578664L569.9582037838227,0.311983943100131L585.6271347645234,0.22845334929479577L586.5501392988626,0.2229181741931825L595.6375487239984,0.1803979022170097L601.0725402469743,0.17209511414512235L604.7418492447177,0.1534767253742757L607.0867086696999,0.153225125377503L608.9614326008796,0.12454270021771663L610.7959932603299,0.14190312153186824L611.9719888707805,0.1585087244548049L615.4226520201082,0.20681583584701002L615.5656632960672,0.1713403150151862L615.7036072433511,0.14919952492346056L623.094587635158,0.1894554843311198L629.8881862797443,0.21562180412365706L634.4688637237614,0.24505886319821002L643.6891497675024,0.21360901179650682L644.7842557979784,0.2244277675908961L659.3914875816972,0.15272192537122464L659.6953396233985,0.1990162599395262L671.8970917168681,0.30846157738778857L672.1320656243461,0.26795431649406964L674.0067895555258,0.26166436002677074L674.1385401010957,0.2903465415965911L679.4641148604405,0.22669215742462256L699.599802229377,0.1514639253000496L700.7864955336954,0.1341035142650071L703.2244436632391,0.09460221960216586L703.1773362744389,4.396656258453731L703.1885970048279,5.78305156175702L703.1902861143863,6.963607163290362L703.1946027277027,10.073030240699154L703.1991070198601,13.356323749032526L703.1870955741088,16.22096093867549L703.1630726826115,21.63388007903268L703.2638562196062,32.23583058223085L703.2595396062898,32.472868350210774L703.2377688608667,37.08185993002735L703.4410250444162,57.8557488767492L703.4410250444162,57.89059675504541L703.4744318779067,65.34181047742823L703.4920736888544,68.38367309253044L703.59304490469,81.58010891723825L703.5861007876138,83.93386960210046L703.5750277360621,87.55608761615622L703.5692096920284,88.38037797714242L703.5528816329625,88.39764408608062L703.5917311528083,98.48717439914981L703.6564803525562,122.69673681562745L703.6566680313936,122.73094659528942L703.6731837692987,127.327638641882L703.6769373460957,146.94769414369148L703.6540405276355,147.11873764383017L703.6880103976473,149.25139497798773L703.6191322634259,155.26566438231202L703.7216049099789,160.0263573377415L703.6953298723984,168.02466893609926L703.7067782816321,192.93033317470145L703.7777208830903,209.53877578965876L703.9212951955687,239.75825118762805L703.8522293825081,248.45476775669886L703.9032780269445,254.20687589524277L703.9308668164012,257.70789753370445L703.919230728332,260.0755882610756L703.9355587873979,264.06826846738113L703.9293653856839,266.8088078670662L703.9237350204894,267.3238922872497L703.9119112535773,270.924331202712L703.9169785822542,274.5066661560759L703.927863954963,278.325927683778L703.9034657057855,296.2845747035026L703.8625517187011,307.19425971130477L703.8505402729515,313.67111349693005L703.591355795128,323.3550054073603L703.4832527833823,335.9329485426151L703.5555091367187,350.3982765310029L703.5934202623685,360.9180120322362L703.5594503923567,362.7925925452528L703.2724894462372,382.1828512957927L703.1696414420057,388.48997915423024L703.1386744334286,389.8826124129191L703.1373606815523,389.90103920752153L703.0587232476573,392.87952412836785L702.7725130169001,405.4275853437939L702.7698855131403,405.9207107600778L702.6946262983656,410.7804934303749L702.5011294144897,425.0770135964467L702.4331896744661,428.68434642027387L702.2243031257221,438.21263957733026L702.0401901838377,454.8608319501682L702.0094108541016,456.2254304232465L701.9992761967533,457.4117772388572L701.9454123697178,463.6091230048105L701.9287089529698,463.79380207478243L701.8793494180936,468.1648431602398L701.8016503784002,472.9809141869491L701.7856976770145,473.5891513803217L701.7622378220312,475.4469741443727L701.7567951356759,475.4748399203381L701.7399040400906,479.4557483731742L701.7288309885425,479.9811538587255L701.6674600079114,482.5246170914179L701.6785330594612,483.21215835777457L701.661829642715,486.0565795827006L701.6674600079114,489.20801599103925L701.6655832195138,489.5216128859711L701.6768439499047,503.92830473202594L701.6015847351282,515.1805864433809L701.584881318382,517.9250052004454L701.6404342549758,521.1821268134117L701.5687409381535,527.7529648135496L701.4840977813874,542.4897718541597L701.5218212281943,542.7575814265228L701.5218212281943,543.0010409874085L701.4842854602248,547.4313917325908L701.4467496922589,553.7827791729469L701.4092139242875,556.4343244436304L701.4092139242875,556.4586508530938L701.3718658351627,564.6303432455679L701.0529994862718,585.4306421885622L700.6965973694114,605.4050031150082L700.6780171642658,606.4484725636348L700.6459240826553,614.5868857148007L700.6438596154148,616.946785940122L700.6014441976131,619.5734409288852L700.6123295703219,620.3518824389503L700.6100774242441,621.1932959297337L700.545140545657,625.3389272409195L700.6121418914827,642.195994924401L700.5777966637907,644.2609347248881L700.545515903339,654.8094715025363L699.4027394475434,655.1263032099496L698.4735415114865,655.6704660659434L696.9124289216834,657.273347989063L695.0245674717153,658.9727993171609L692.9385171668782,661.420601461009L687.6489767447765,664.264485142301L686.710582545571,665.2096016479181L686.0553957156826,666.4393833212462L686.0916177317722,667.6408002373319L686.6340095789128,668.3259397908323L687.612942407528,670.440877910697L688.7782403241035,672.0812727647099L691.1595094440163,674.1300348334535L693.6385592394854,677.5174426578933L694.8781779766396,679.5167681281155L695.0487780420535,680.0787494823871L695.4900109945229,680.9515106971476L696.8533100871318,682.4049673128138L697.3619197431035,683.1851320326123L698.046384472007,684.7634622445285L698.582019880916,686.3626495871476L698.7250311568732,687.6935016939742L698.2070375589119,689.606435224131L697.729770269194,690.4509544419252L692.1799192962353,696.0176073783696L691.0485912496679,697.3836557533114L689.7342763342585,699.5244313297999L689.4516320014591,700.547441263815L689.5362751582252,701.2013540413127L689.871844923864,702.2599595862557L691.1677673129689,704.3405594559081L691.6080618712367,704.6434517202233L692.925379648088,705.0001149621794L698.6096086703728,705.0960920374127L700.7489597657259,705.5270176528793L701.936403785403,705.6082822084272L704.2822016045866,706.5877670812342L706.553866282029,708.3580282063367L706.8798644268336,708.721605910795L707.0998240271292,709.1509937787223L707.2227536672272,710.3850924777435L706.9937854826203,711.7890458887314L706.5240253464945,713.0354884796398L706.0172924789204,713.9400727901602L705.5083074652721,714.6110685172025L703.7191650850618,716.3137468821897L701.1063002767842,718.0736059527626L699.9438175428058,719.0914126844809L699.1696423284575,720.1243380012247L698.7060755940493,721.1547918841534L698.7195884705197,722.4140443736333L699.2428370759972,724.0451291685167L701.2307313475994,727.2519230018497L701.712502929473,728.4827930592919L702.1430381880728,730.2751152902774L702.122956552208,731.141228926952L701.9118178573844,731.8833020950342L701.5807523839067,732.2682910773165L700.316360039893,732.5998225127696L698.9395480708117,732.5764686561306L697.6336787031942,732.3162034234692L695.335363630491,731.3971779689373L693.6488815756766,730.8872023506992L687.8280223579859,729.8209720753093L686.6998848516978,730.0492491700197L685.2089641479961,730.7957037056258L682.7015748477133,732.3650786940698L679.3715891924003,733.9461066064841L677.8525166627242,734.4015851214936L676.6189036484448,734.4868054468425L673.8241780443605,733.8218830962205L670.7860329850027,733.5221540657012L668.6684526350709,733.7381039422808L667.5549540782886,734.1297920492016L666.8023619305222,734.6211349313699L664.5834350070763,736.5476122726022L659.1095939642546,739.3272997130989L657.7903993990058,740.3655055341433L655.4825127054737,741.7855366530566L653.2934267175606,742.5990959054443L652.4599449898233,743.0974150103875L651.3693432515047,744.0735588420876L647.8441716027592,746.1519806233355L647.403126329129,746.5073008730851L646.7150957022695,747.395689642035L646.7295469729379,747.5979943407974L644.0166493430243,749.8967878842332L641.8223083475968,752.0269325245608L640.7654888004508,752.798164048817L639.2300882117033,753.6977702198392L637.4852380376942,754.4614727203689L634.4129354294873,755.4639010199226L633.5526156276537,755.3862383579162L631.6446725418227,755.5776293009958L631.038657567975,755.4956392205086L628.4124675620697,754.5958866224064L626.7689639615783,753.693201368591L625.2924945285413,752.3679428083624L624.3657364174032,751.2859693822447L622.000419998878,747.1878497550906L621.2930584515143,746.2879029133483L620.5290178945215,744.9440292983218L618.2128733320333,743.5165597265577L616.5626132933066,743.0004472392529L615.0959031599432,742.6941409833098L612.5111901776436,742.3962511075551L609.3538690549885,742.5793649626194L604.7073163381883,743.7689559471091L602.8031268291543,744.4455231437751L600.7718787455469,744.9880568979252L598.5101610466154,745.2673769104977L596.9229610980765,745.243559101973L591.6309808510596,743.9433934946737L589.6708630477497,743.6787289346139L588.5999675876174,743.8731374815807L587.5883786408685,744.2191215101684L585.3279746938151,745.5132517522907L584.6333753075614,746.2470060541837L583.7878821340746,747.8238703769075L582.5508909006785,749.3830316722979L581.9405593135161,750.3499196675093L581.2174327436041,753.6429439247349L581.0276894365215,755.2107146412945L581.1209658199259,756.1883349073523L581.3077062655702,756.9045639792439L583.3104271655156,759.7910568217139L584.4502007598767,762.3783199326208L584.6386303150775,764.8827682405672L584.3158227105505,768.8551080375964L584.3359043464116,774.1346047813058L584.4779772281745,775.331382862124L584.6934325363127,776.2154033668967L584.9329107359481,777.0395837602182L587.9896360004514,782.9781850702802L588.7519874478894,785.3785916358484L588.85502313096,787.3327559863819L588.7934644714933,789.5105891968615L588.470281509286,790.8490702976269L587.3901897859942,793.0521309949418L586.8815801300261,793.7361214987795L585.502328336026,794.8914784900016L583.8903547806276,795.7845721165841L580.7427929576443,797.1736571033061L579.9879486637983,797.6049199534482L579.2047648651424,798.1618519261729L578.1669008808167,799.121450112847L577.7665819154336,799.650273614403L577.1442388825199,801.0301748872389L576.8060416131248,801.9382979412949L576.4730993512458,803.4151249391598L576.1632415866679,804.0560271389713L574.5632794770172,806.6929948672159L573.1661981932339,808.2415673668838L569.7742785207774,809.89186692979L567.8552623833948,810.6269605511388L566.0952102233605,811.1559114210786L562.9493375099355,811.6838874752884L558.8297869754078,811.8248061839522L556.48305076203,812.4951129572028L553.4661134115759,814.508273595623L552.7536845355353,815.1789555907881L550.3341289322962,819.0578100735838L550.3701632695465,819.3951023349528L550.1269314931124,820.4989219522495L548.5624406841926,824.039628538083L548.0039084568216,825.629752848392L547.045995658269,829.2998918972871L546.9559098151476,830.1464419661297L547.0520013811474,832.7047540252242L546.9078640321477,833.8230440699126L545.5145363251613,838.2569568761619L544.1182057567403,842.0392574938642L542.9440869346909,843.8841695265664L541.2923254652433,846.008015443962L540.1063828762872,848.2083698876795L538.5028548686787,849.6068849136354L528.1457980920131,855.8478909753239L526.9979543075442,856.3728336519362L525.8531133845099,856.2055039208963L523.9575571021087,855.0819625310551L522.9251358041383,853.8627183323697L523.075278876011,853.3847990577851L523.0377431080433,853.193532029446L521.6489196932143,851.8306934412904L520.2225605104195,851.2807458120506L518.2331648080963,851.2568346502349L517.7639677084953,851.4242120910903L517.3886100288073,851.7111410912703L516.1686975698358,852.1176157213813L513.6160776691522,852.5958089811111L512.1897184863556,853.1696235027139L511.1387169832433,854.0781243688743L510.10648336411214,856.1579341744027L509.50591107661785,858.7155195983905L509.5246789606026,860.1970736504463L509.2056249328725,862.9213310280566L508.1170876617907,865.1912192280324L506.9962696302555,866.8829293585541L503.78170646144645,869.5631440870748L501.5858640352999,871.6172178980296L498.8645208575981,875.1754459065914L498.32025222205266,876.1783048409598L496.23701709981106,881.6929958600003L496.10564191192316,886.7284592013712L496.9126609232426,893.6471908560361L497.02526822714935,896.2231198992886L496.7251697622396,899.5855654498455L495.4114178833497,902.6374367653516L494.9459743605403,904.2823645926092L494.69373399979304,905.3846178141448L494.43248505473457,907.2037553847895L494.21027330836296,910.3341252328919L493.87094996592896,912.465362926132L493.67876683393297,913.2888126154221L493.11141370109,914.5332058388458L492.2073647295729,915.7589286395796L491.3815778342687,916.6851320526557L490.471710818716,917.512193986885L488.2225676020553,918.7848685951549L486.9403457682565,919.0211475898768L483.6129876167015,919.2726668780733L479.75543674259643,920.1031788003374L477.4010056967836,920.4709064810004L475.23744403108685,921.0455845614761L473.57573558312833,921.8733926080322L473.02039389604033,922.4782678145693L472.5429389274814,923.7370078967988L472.49282867724287,924.5908802098775L472.8481047210644,927.1731971608351L472.6662439252559,928.5446746908301L472.35507240879997,929.2392997422967L471.9468709321445,929.7994073807913L471.16500088536486,930.1164684337036L470.62936547645586,930.0593407407596L470.0194092469701,929.7948846965464L468.9958088544736,928.7946286253409L467.5283480057533,926.9484559859411L466.94128859472585,925.9266090323399L465.66788766640093,923.168847760533L465.0539901812772,921.7055003038404L465.22946989653065,921.2044333933845L464.9642796958342,920.8474382665845L464.093262200131,919.9185975448536L462.68736001087564,918.8994357246866L461.1406986917409,917.993596505562L458.8153578661022,916.9250126320185L456.928810168014,916.4812190581324L455.17176086941436,916.3068429728892L452.63941028343106,916.4357194551794L447.71340377410525,917.7675462086981L446.7982817510401,917.7577800076942L445.52262867663376,917.4271551513357L443.2809926135651,916.2051227855773L440.3697184499415,914.9096274391686L437.7549768532699,913.4691753152574L436.78880618576113,912.1925389953267L435.3740830910356,910.7568668188806L432.1994955151167,909.201918489207L430.07853694606456,907.559599604202L429.02415722383375,906.5099217024208L428.9455197899406,906.3835938094353L427.76802274877264,904.0504153261736L426.8041042273453,898.8384908671251L426.8161156730948,896.6431033369745L428.21113248963957,889.1045183642136L428.1024664413726,887.2524703896788L425.1050476902601,882.4374646105762L422.0304929359754,880.0929605351603L419.59367087947066,878.8909873128941L416.65255578031247,876.496103548141L413.85126141683395,873.529199232159L411.47881320239503,872.7093608861405L408.95941245636095,874.0094303092546L408.14300950304823,875.8020007421974L408.27757523121727,879.2557657178586L409.3462185452736,880.9735591217641L412.7460207290078,882.0725142069778L417.94172173118204,883.328446104324L418.81761887672474,884.9749591769514L418.4086666847088,886.976149515298L417.480594821689,888.4447995619712L416.2143256892796,889.3120919868143L412.96354050438276,889.4989061319047L408.67357758328035,888.9811659705656L407.8382190671473,889.3044571387754L406.4417008198852,890.4119523123627L404.75277894014835,894.4297888305164L403.73218140909194,895.0005551285694L403.09125817103086,894.9039578842994L400.5215594959154,892.0673378211341L398.0837990452146,890.0567121784406L394.6973220591117,889.7937964130879L393.3231375937903,890.4360482578404L392.17210326904205,891.6892300478758L391.64040911577104,892.8440432499783L391.614884793551,894.6702141887063L392.0576191767377,896.0068042080975L393.00783714285717,897.1451145530509L397.65270075009903,899.4441650248791L398.39497056167056,901.3814656626128L397.8886130517785,904.1152565417224L396.86632641116194,905.7230985517745L394.2470805223329,908.0913265021745L390.54774291021386,909.1094512963482L388.9543495599555,909.2619742385759L385.2649589263492,909.2193156124695L383.0674273906425,909.5312693032947L382.02975108515784,909.9635626011732L381.63281033889325,910.2955203612892L381.17843986763546,910.9899183987291L380.58837759517337,913.4794204324917L380.69798203764185,915.6879367415941L380.6471210720447,917.049358566911L380.4566270496034,918.4187727502622L380.4241586103126,920.5052019321747L380.6035795812004,924.4465868147145L380.54990343300415,927.6859961828704L380.8019561149122,929.1283710686203L381.4265512939055,930.9686010273617L381.7883960971212,931.5969627039249L382.91202931125554,932.7508044322149L383.5122262410696,933.8117575445385L383.95270847817665,935.2521994340796L384.0320966274303,936.6132877845475L383.8048175523818,937.0629947495017L383.20912491472154,937.7075545733878L381.66358966862754,938.6490117964095L379.96716063529857,939.4924021501192L378.8641720935502,939.8756614550139L377.6318728311471,939.9080156738019L376.17079306298183,939.6770147564257L372.83968133462986,938.6487738808482L370.1997907734185,938.4153771509573L369.0324283896025,938.6199860733122L368.6497512351634,938.8878773939105L367.23390206739896,940.5222586849377L366.79717340708885,941.312987503492L366.5351737466717,942.3146687750495L366.48862939438914,943.6314439492753L366.85366473788054,947.594729571525L366.8225100504678,948.5775046184181L366.62113065531776,949.924955787621L366.9803479547736,950.7036102343127L367.00962585379057,951.0164888067293L366.8617349279957,951.6774145322706L365.6388196075841,953.8430791519713L364.7869453535459,954.5238650647298L363.651113014821,955.130227173564L361.6714766121713,956.4591112823882L360.0747050427999,957.2721741938221L359.32511575647186,957.5400179957796L357.4928072430994,957.8473084608067L356.65050460988823,957.797163207506L356.12875743512814,957.5899263263636L355.57097592311584,957.2011129063012L354.9386859116912,955.877276375707L354.7776574671061,954.1570901865771L355.01450816298893,952.7759700744764L355.5510819660958,951.2033573857043L357.3616197340489,947.2420775105338L358.1072677647371,945.1564578764937L358.2414581352241,944.3487783394585L358.2219395358825,943.3583924983468L357.9648195252994,942.3681884834778L357.670539104427,941.870567814577L357.10637651186335,941.396007199266L355.0792573627332,940.8148610582803L352.7989594586561,940.3761935556658L351.3179857334635,940.3507390842906L350.3634511540331,940.8089139042786L349.24131937061793,941.8924520037508L346.2718647666461,944.3095350098711L344.71000146148253,945.3307842889644L344.27383583768824,945.5567163473188L343.5634714288899,945.669681283166L341.83438627742726,945.2672849645369L341.22292861722235,944.7328826482408L338.1690185353182,940.8543501095874L335.52950333178524,936.1871262300801L332.7257691433897,930.472560178072L331.21476680382693,926.5880070078983L330.7356227257096,924.8685106842895L329.91208797648505,922.7445015236008L326.9227394154859,920.7993302933746L326.10558574681454,920.3880255293152L325.2039766002181,920.2653705256971L324.5621149679573,920.3732593414725L322.37190290700346,921.6090508035977L319.769548113758,922.4973186619718L318.47024750553464,923.1469401263212L317.10507162452814,924.2891961256364L316.40840777103585,925.0513729440117L315.7605404159003,926.0080351882334L314.73093430053086,927.0808250785822L313.7054571196368,927.8538310349877L313.02549668289066,928.60371175205L311.6886603066978,930.6137095106596L309.75012556997353,932.9385821138203L308.86465680359834,933.6853889825616L306.57535031521,935.1986579545537L304.995469841424,935.6050931746204L303.9425915499123,935.6091384425736L301.8263249518586,935.9434647075041L298.0442209713656,936.2171077844841L297.2448967924829,936.1043197652516L295.38443645313237,936.7367798961877L290.81558277602744,938.5938152980898L289.49920339337586,939.242601063951L285.1583795066799,942.3529651164035L283.50586732187185,944.3276107362499L282.9706072706431,945.4016559221673L282.7574041085827,946.3312844410739L282.82177795064854,946.8763391452667L283.1502159203719,947.7202843562754L283.2885352253361,948.6916389637154L283.3557242499992,949.8545779853648L283.20464278392683,950.8657562103645L282.19005097574154,953.4929300071053L281.7786589588104,954.9343680887332L281.0369521837565,959.3035971256031L280.58051724526194,961.1665576872274L279.1631666467765,965.1997594476261L278.70372884684366,966.248772095405L278.1602109266605,967.2293141509253L276.9080177072374,968.5898204916439L274.42465129845186,970.5850231585728L272.68599452616036,971.3373511266891L270.5777981182182,971.8426846353705L269.05835023086,971.762896101277L267.499865144815,971.2423620005366L267.1064902965081,970.8699996681853L266.4458607802626,969.5400696955703L265.62889479043406,965.9639580628636L264.79409931081864,963.8468300801696L262.62903621440455,959.9958146402123L261.6170719099773,958.691913587636L260.971269022084,958.148176968084L260.49381405352506,957.8972159164368L259.3737467373485,957.6348437023908L257.64109568793174,957.8591912012271L253.4789420567613,957.2850079742366L251.56912218253274,956.7070032115762L249.96859703636437,956.0151311634918L243.53008675675665,951.6907278878025L242.08871326677217,950.3783627544362L240.78246854147437,948.7120879553386L239.94166733898237,947.9778115240624L234.69529305004835,944.2909835870814L231.37112543877447,942.5556251054577L229.1698403262708,941.9581044070828L228.71941111065098,941.9695221912143L228.4881907799645,942.1217586012835L226.6984853632348,941.2656494490839L225.2569241944111,940.0857249117989L224.86354934610426,939.579474833411L224.1909083841092,939.0351444988437L223.56331034368122,938.9247537643023L223.1909555254315,938.6049973613844L221.55721122461182,936.777705798665L221.4851425501147,936.652072491549L221.6112627304865,936.3779603259272L221.53619119455107,936.2980101351804L220.07079481306937,935.4528000533455L216.14586723545654,934.1128013816833L215.86960398321025,933.8653032699503L212.8755634512163,933.2712935107584L211.01078649854753,933.2598700484214L209.4459203319493,933.4071845424578L207.39515364900217,933.8272263264971L206.89367578894235,934.0594943920323L204.06798317628636,935.9063440995023L200.15806990586498,939.1117514526768L199.3953431007467,939.952978422637L197.38342593764537,941.7418787138085L196.19128994697166,942.3203775517441L195.43757172616824,942.3926885620649L193.78881311815712,940.9197685226009L191.6778015276177,940.0443309533348L188.98104427793442,938.5293398575786L187.97208283494547,937.8745794907591L186.45845299162102,936.5116857210987L185.2332855251334,934.8973948408366L184.75883341801455,934.1130393589519L184.0771838717119,932.6279981658445L183.6535927301884,930.872440657221L183.81724867852972,929.0157753645308L183.57326618673687,927.8016952747575L182.97269389923895,926.8970317515059L182.3721216117483,926.4446824291654L181.4710755016713,925.9685125985479L180.7391280262891,925.8256591193285L180.15732362277777,925.8732770754859L179.44414403137853,926.1113649100307L178.5620534841255,926.658954620254L178.1116242685057,927.5160171155558L177.84887389272626,928.4206486022931L177.84887389272626,929.3014290137935L178.16792792045453,929.8965257917052L177.66119505288225,932.1101079890723L176.79787238961217,933.3096096528607L175.17032149050283,934.7527105531253L174.02022555995427,935.9653563111951L173.39262751952265,937.5662245516669L173.49472480839904,938.8186447724747L173.9001111024554,940.0823943670375L174.45564046838626,941.365083003313L175.02318128006664,942.2747072860393L177.23647783831984,944.2079776212686L178.45864244336917,944.9386068773765L179.36869713776105,945.7300874971434L180.40768719512562,946.9667043413847L181.00000161366916,951.3424376676976L180.9431349251936,953.1983999514796L180.422326144635,954.2305408579723L177.5893140572225,958.5022730981418L176.49570945746746,959.6498281146378L175.93774026661777,960.0932409325187L174.13320822154128,960.7816254292975L172.10777818196948,961.2715809470064L170.22123048387948,961.5367499982513L168.4733774484339,961.503960494143L166.34303493738844,961.1670329070148L165.24042175332215,960.7697446696129L164.65092251737588,960.1507459533968L163.9658947519565,959.0602570469791L163.6841888133531,958.0386196024047L163.45690973830642,956.6625587995859L163.5070199885413,954.40287536696L164.67682219727794,952.0188038094093L165.09234314868445,951.4325420814775L165.90067591188563,950.6990929495596L166.4081594948184,950.0692769502766L166.79740540864805,949.3488480957612L167.0378220024868,948.3328266091712L167.02937645469137,947.3509890196501L166.623990160635,945.4637278216123L166.35072976982337,944.923385745552L165.4168398627735,944.0405374552265L164.6148881801273,943.4620954674128L163.75006408613626,943.1424219576538L163.05940595552238,943.0891424717611L162.24863336740236,943.3327045119859L159.8881965987166,944.5694906998233L158.05645112186176,945.3724035714222L156.68714630637623,945.6882312450662L155.62413335751262,945.8099946096208L153.81021737044284,945.26585801078L152.5249926752076,945.1935588682072L148.37503816862954,946.0839590837613L146.73397439304972,947.1885727000563L146.3565522461322,947.5968697174467L144.36190153629286,949.21022752724L143.84315722297106,949.4962649922882L142.99991619556386,949.6964646618044L142.19571236683987,949.8013189200083L139.7881682093539,949.8208155609364L135.55319518832403,949.5057757171999L134.93291662264892,949.3136580725031L134.14109959735652,948.7322991445317L133.56098430340353,948.1245266012502L133.4817838329909,947.8705684453007L133.46714488348516,946.8499429078702L132.90448372164246,945.8123727919055L132.73576044462243,945.5500573388763L130.5487389239497,943.7667788475655L130.2681590583852,943.2601595321239L129.45006699551232,941.1005599558921L128.98818937066244,940.3397960291386L127.67781571088926,938.9259433233483L126.77977246224691,938.2038661101788L125.65445013855788,937.6794790033846L123.93718875400373,937.2768989259384L122.88787636045163,937.3758792837316L121.62536080483551,937.9997281701699L118.44326607531912,942.0456405617751L117.31250106527295,943.7013710748215L116.49422132356267,944.5585502819904L115.62057632409778,945.6841883063225L115.3238560783102,946.1086917767097L115.00405133522145,946.853509969299L114.85953862854149,947.883646904701L114.8253810796923,948.8752034755535L115.01606278097097,949.8557668019394L115.36833596335418,950.9002298681007L115.72492575905198,951.5454691224259L117.39995940463996,953.739199925245L119.72924148591483,955.9000937947803L120.5955670106232,957.3741311900876L121.0653271467454,958.7537007726796L121.81022446207862,963.4700343312898L121.6617704997625,964.7139522191383L121.24606186951496,965.8784416875333L120.44335947151194,966.4642205058335L118.93235713194736,967.1839462873168L117.35491648307652,967.7247900920738L116.4144578166306,968.2423408624509L115.96740682013115,968.8247156728548L116.01207438400888,969.6305556266752L115.79380389327343,970.1349883295907L115.2801269086267,970.5598500111219L114.1713203228428,973.5656485433328L113.80403283327541,973.9880528282065L113.4040892255689,974.2570661110303L112.65412458156425,974.3999999999987L111.25779401314139,974.0483615484236L109.33746412388064,971.9984612041817L109.0478756740049,971.3354513492095L108.1875558721731,970.5384765556937L106.69194319747112,969.6369679977897L106.16663012475692,969.541494674485L105.41385029815137,969.1028332018586L105.05144245841802,968.6974119002334L104.3001640625298,968.2423408624509L102.87305416437448,967.6549587595391L100.91406243410529,967.2309768452697L99.8110738923533,967.3547283676335Z" class="state" fill="#990000"></path></g></svg>
